<!-- Copyright 2024 Project Vane and contributors. Use of this source code is governed by the Vane 2.0 license. -->
<svg width="40" height="40" viewBox="0 0 40 40" fill="none" xmlns="http://www.w3.org/2000/svg">
    <rect style="fill:#3b3b00;fill-opacity:1;stroke:#000000;stroke-width:0.0874814;stroke-dasharray:none;stroke-opacity:0"
          width="4.9125185" height="4.9125185" x="17.543741" y="17.543741"/>
    <path d="M 32.0845,6.44025 V 4 H 24.0203 V 7.9896 H 16.029 V 5.5 m -8.11347,0 V 7.94025 H 4 V 36 h 12.0044 v -3.9955 c 0.0014,-1.0588 0.423,-2.0737 1.1722,-2.8219 0.7492,-0.7481 1.7646,-1.1683 2.8234,-1.1683 1.0588,0 2.0743,0.4202 2.8234,1.1683 0.7492,0.7482 1.1708,1.7631 1.1722,2.8219 V 34.5 M 36,34.5 V 9.44025"
          fill="url(#paint0_linear)" style="display:none"/>
    <path style="display:none;fill:#000000;fill-opacity:0;stroke:#000000;stroke-width:0.1;stroke-dasharray:none;stroke-opacity:1"
          transform="rotate(4.769508,20,20.002345)"
          d="m 19.183943,20.003984 c 0.02312,2.671071 -2.780523,4.860834 -6.262118,4.890974 C 9.4402293,24.925098 6.5990935,22.7842 6.5759703,20.11313 6.5528472,17.442059 9.356493,15.252295 12.838089,15.222155 c 3.481595,-0.03014 6.322731,2.110758 6.345854,4.781829 z m 0.06275,0.312167 c 1.043537,2.458898 -0.708707,5.554885 -3.913748,6.91508 -3.205041,1.360194 -6.6491942,0.469518 -7.6927318,-1.989381 -1.0435375,-2.458898 0.7087072,-5.554885 3.9137478,-6.91508 3.205041,-1.360194 6.649194,-0.469518 7.692732,1.989381 z m 0.177431,0.264392 c 1.905082,1.872382 1.471002,5.403256 -0.969546,7.886428 -2.440547,2.483171 -5.963377,2.978315 -7.86846,1.105933 -1.9050826,-1.872382 -1.4710024,-5.403256 0.969545,-7.886427 2.440548,-2.483172 5.963378,-2.978315 7.868461,-1.105934 z m 0.265103,0.176367 c 2.476596,1.000812 3.426765,4.429029 2.122262,7.657138 -1.304504,3.228109 -4.369691,5.03369 -6.846287,4.032879 -2.476596,-1.000812 -3.426766,-4.429029 -2.122262,-7.657138 1.304503,-3.228109 4.36969,-5.03369 6.846287,-4.032879 z m 0.312416,0.06149 c 2.671071,-0.02312 4.860834,2.780523 4.890974,6.262118 0.03014,3.481596 -2.110758,6.322732 -4.781828,6.345855 -2.671071,0.02312 -4.860835,-2.780523 -4.890975,-6.262119 -0.03014,-3.481595 2.110758,-6.322731 4.781829,-6.345854 z m 0.312167,-0.06275 c 2.458898,-1.043537 5.554885,0.708707 6.91508,3.913748 1.360194,3.205041 0.469518,6.649194 -1.989381,7.692732 -2.458898,1.043537 -5.554885,-0.708707 -6.91508,-3.913748 -1.360194,-3.205041 -0.469518,-6.649194 1.989381,-7.692732 z m 0.264392,-0.177431 c 1.872382,-1.905082 5.403256,-1.471002 7.886428,0.969546 2.483171,2.440547 2.978315,5.963377 1.105933,7.86846 -1.872382,1.905083 -5.403256,1.471002 -7.886427,-0.969545 -2.483172,-2.440548 -2.978315,-5.963378 -1.105934,-7.868461 z m 0.176367,-0.265103 c 1.000812,-2.476596 4.429029,-3.426765 7.657138,-2.122262 3.228109,1.304504 5.03369,4.369691 4.032879,6.846287 -1.000812,2.476596 -4.429029,3.426766 -7.657138,2.122262 -3.228109,-1.304503 -5.03369,-4.36969 -4.032879,-6.846287 z m 0.06149,-0.312416 c -0.02312,-2.671071 2.780523,-4.860834 6.262118,-4.890974 3.481596,-0.03014 6.322732,2.110758 6.345855,4.781828 0.02312,2.671071 -2.780523,4.860835 -6.262119,4.890975 -3.481595,0.03014 -6.322731,-2.110758 -6.345854,-4.781829 z m -0.06275,-0.312167 c -1.043537,-2.458898 0.708707,-5.554885 3.913748,-6.91508 3.205041,-1.360194 6.649194,-0.469518 7.692732,1.989381 1.043537,2.458898 -0.708707,5.554885 -3.913748,6.91508 -3.205041,1.360194 -6.649194,0.469518 -7.692732,-1.989381 z M 20.57588,19.424147 c -1.905082,-1.872382 -1.471002,-5.403256 0.969546,-7.886428 2.440547,-2.4831715 5.963377,-2.9783147 7.86846,-1.105933 1.905083,1.872382 1.471002,5.403256 -0.969545,7.886427 -2.440548,2.483172 -5.963378,2.978315 -7.868461,1.105934 z M 20.310777,19.24778 c -2.476596,-1.000812 -3.426765,-4.429029 -2.122262,-7.657138 1.304504,-3.228109 4.369691,-5.0336902 6.846287,-4.0328787 2.476596,1.0008115 3.426766,4.4290287 2.122262,7.6571377 -1.304503,3.228109 -4.36969,5.03369 -6.846287,4.032879 z m -0.312416,-0.06149 c -2.671071,0.02312 -4.860834,-2.780523 -4.890974,-6.262118 -0.03014,-3.4815957 2.110758,-6.3227315 4.781828,-6.3458547 2.671071,-0.023123 4.860835,2.7805227 4.890975,6.2621187 0.03014,3.481595 -2.110758,6.322731 -4.781829,6.345854 z m -0.312167,0.06275 c -2.458898,1.043537 -5.554885,-0.708707 -6.91508,-3.913748 -1.360194,-3.205041 -0.469518,-6.6491942 1.989381,-7.6927318 2.458898,-1.0435375 5.554885,0.7087072 6.91508,3.9137478 1.360194,3.205041 0.469518,6.649194 -1.989381,7.692732 z m -0.264392,0.177431 c -1.872382,1.905082 -5.403256,1.471002 -7.886428,-0.969546 -2.4831715,-2.440547 -2.9783147,-5.963377 -1.105933,-7.86846 1.872382,-1.9050826 5.403256,-1.4710024 7.886427,0.969545 2.483172,2.440548 2.978315,5.963378 1.105934,7.868461 z m -0.176367,0.265103 c -1.000812,2.476596 -4.429029,3.426765 -7.657138,2.122262 -3.228109,-1.304504 -5.0336902,-4.369691 -4.0328787,-6.846287 1.0008115,-2.476596 4.4290287,-3.426766 7.6571377,-2.122262 3.228109,1.304503 5.03369,4.36969 4.032879,6.846287 z"/>
    <path style="fill:#000000;fill-opacity:0;stroke:#000000;stroke-width:0.1;stroke-dasharray:none;stroke-opacity:1"
          d="m 6.7082962,19.081376 c 0.00433,-0.561481 0.1951922,-1.111901 0.4894085,-1.590144 0.2942163,-0.478242 0.6887152,-0.888382 1.1175023,-1.250903 1.2403133,-1.04863 2.78107,-1.714475 4.377315,-2.014482 0.842834,-0.158407 1.708392,-0.218035 2.560239,-0.118946 0.851847,0.09909 1.690528,0.360196 2.419654,0.811679 0.75686,0.468656 1.39631,1.156391 1.707107,1.990586 0.288196,0.773533 0.280186,1.645913 0.01968,2.429204 -0.260511,0.78329 -0.765863,1.47668 -1.403927,2.000401 -1.146276,0.940859 -2.656654,1.314144 -4.131459,1.469436 -1.64362,0.173068 -3.36471,0.09578 -4.8555286,-0.617589 C 8.3942365,21.89679 7.8240235,21.493247 7.3993843,20.961204 6.9747451,20.429161 6.7030484,19.762082 6.7082962,19.081376 Z m 0.6602285,5.156441 C 7.1576544,23.71742 7.1233528,23.135858 7.2121576,22.581427 c 0.088805,-0.55443 0.2963204,-1.084318 0.5537375,-1.583333 0.7446068,-1.443456 1.9132726,-2.648238 3.2732029,-3.536265 0.718058,-0.468888 1.49491,-0.855212 2.319834,-1.089653 0.824924,-0.234442 1.699685,-0.314159 2.546085,-0.176068 0.878594,0.143344 1.732554,0.534021 2.338925,1.18578 0.562276,0.604364 0.888722,1.413403 0.947794,2.236762 0.05907,0.82336 -0.142463,1.657358 -0.531539,2.38539 -0.698969,1.307901 -1.951527,2.230768 -3.254641,2.938622 -1.452276,0.78888 -3.071933,1.376111 -4.722265,1.287553 C 10.003543,26.193739 9.3223054,26.039125 8.7263859,25.710083 8.1304663,25.381042 7.6241713,24.868716 7.3685247,24.237817 Z m 2.5832561,4.511272 C 9.5578147,28.349001 9.3035701,27.824834 9.1734436,27.278623 9.0433171,26.732412 9.0322572,26.163447 9.0791148,25.603908 9.2146554,23.98538 9.8333114,22.425077 10.74989,21.084225 c 0.483963,-0.707985 1.053841,-1.36219 1.726255,-1.894471 0.672413,-0.53228 1.45008,-0.940686 2.284897,-1.137009 0.866571,-0.203792 1.805033,-0.169649 2.614664,0.20045 0.750756,0.343185 1.361958,0.965714 1.731619,1.703793 0.369662,0.738079 0.502625,1.585717 0.421772,2.407224 -0.145252,1.475827 -0.949299,2.807778 -1.882335,3.96043 -1.039837,1.284592 -2.311481,2.446938 -3.870079,2.996676 -0.641964,0.226429 -1.330514,0.344283 -2.00699,0.268337 -0.676477,-0.07595 -1.340291,-0.355524 -1.8179122,-0.840566 z m 4.1130062,3.179302 c -0.517084,-0.218869 -0.952565,-0.60584 -1.281812,-1.060676 -0.329247,-0.454836 -0.557199,-0.976259 -0.728035,-1.511138 -0.49416,-1.547193 -0.519699,-3.225475 -0.186013,-4.81502 0.17619,-0.839297 0.452335,-1.661787 0.86987,-2.410872 0.417534,-0.749084 0.979714,-1.424002 1.675855,-1.924852 0.72262,-0.519901 1.60271,-0.847491 2.492343,-0.815397 0.824939,0.02976 1.627848,0.371006 2.251821,0.911438 0.623973,0.540433 1.071192,1.272666 1.310871,2.06258 0.430579,1.419072 0.197452,2.957329 -0.22346,4.379299 -0.469092,1.584737 -1.199127,3.145241 -2.428708,4.249582 -0.506447,0.454863 -1.097483,0.827241 -1.751529,1.015953 -0.654046,0.188711 -1.374321,0.184446 -2.001203,-0.0809 z m 5.016589,1.363313 c -0.561481,-0.0043 -1.111901,-0.195192 -1.590144,-0.489409 -0.478242,-0.294216 -0.888382,-0.688715 -1.250903,-1.117502 -1.04863,-1.240313 -1.714475,-2.78107 -2.014482,-4.377315 -0.158407,-0.842834 -0.218035,-1.708392 -0.118946,-2.560239 0.09909,-0.851847 0.360196,-1.690528 0.811679,-2.419654 0.468656,-0.75686 1.156391,-1.39631 1.990586,-1.707107 0.773533,-0.288196 1.645913,-0.280186 2.429204,-0.01968 0.78329,0.260511 1.47668,0.765863 2.000401,1.403927 0.940859,1.146276 1.314144,2.656654 1.469436,4.131459 0.173068,1.64362 0.09578,3.36471 -0.617589,4.855529 -0.293828,0.614047 -0.697371,1.184259 -1.229414,1.608899 -0.532043,0.424639 -1.199122,0.696336 -1.879828,0.691088 z m 5.156441,-0.660229 c -0.520397,0.210871 -1.101959,0.245172 -1.65639,0.156367 -0.55443,-0.0888 -1.084318,-0.29632 -1.583333,-0.553737 -1.443456,-0.744607 -2.648238,-1.913273 -3.536265,-3.273203 -0.468888,-0.718058 -0.855212,-1.49491 -1.089653,-2.319834 -0.234442,-0.824924 -0.314159,-1.699685 -0.176068,-2.546085 0.143344,-0.878594 0.534021,-1.732554 1.18578,-2.338925 0.604364,-0.562276 1.413403,-0.888722 2.236762,-0.947794 0.82336,-0.05907 1.657358,0.142463 2.38539,0.531539 1.307901,0.698969 2.230768,1.951527 2.938622,3.254641 0.78888,1.452276 1.376111,3.071933 1.287553,4.722265 -0.03648,0.679748 -0.19109,1.360986 -0.520132,1.956905 -0.329041,0.59592 -0.841367,1.102215 -1.472266,1.357861 z m 4.511272,-2.583256 c -0.400088,0.393966 -0.924255,0.648211 -1.470466,0.778337 -0.546211,0.130127 -1.115176,0.141187 -1.674715,0.09433 -1.618528,-0.13554 -3.178831,-0.754196 -4.519683,-1.670775 -0.707985,-0.483963 -1.36219,-1.053841 -1.894471,-1.726255 -0.53228,-0.672413 -0.940686,-1.45008 -1.137009,-2.284897 -0.203792,-0.866571 -0.169649,-1.805033 0.20045,-2.614664 0.343185,-0.750756 0.965714,-1.361958 1.703793,-1.731619 0.738079,-0.369662 1.585717,-0.502625 2.407224,-0.421772 1.475827,0.145252 2.807778,0.949299 3.96043,1.882335 1.284592,1.039837 2.446938,2.311481 2.996676,3.870079 0.226429,0.641964 0.344283,1.330514 0.268337,2.00699 -0.07595,0.676477 -0.355524,1.340291 -0.840566,1.817912 z m 3.179302,-4.113006 c -0.218869,0.517084 -0.60584,0.952565 -1.060676,1.281812 -0.454836,0.329247 -0.976259,0.557199 -1.511138,0.728035 -1.547193,0.49416 -3.225475,0.519699 -4.81502,0.186013 -0.839297,-0.17619 -1.661787,-0.452335 -2.410872,-0.86987 -0.749084,-0.417534 -1.424002,-0.979714 -1.924852,-1.675855 -0.519901,-0.72262 -0.847491,-1.60271 -0.815397,-2.492343 0.02976,-0.824939 0.371006,-1.627848 0.911438,-2.251821 0.540433,-0.623973 1.272666,-1.071192 2.06258,-1.310871 1.419072,-0.430579 2.957329,-0.197452 4.379299,0.22346 1.584737,0.469092 3.145241,1.199127 4.249582,2.428708 0.454863,0.506447 0.827241,1.097483 1.015953,1.751529 0.188711,0.654046 0.184446,1.374321 -0.0809,2.001203 z m 1.363313,-5.016589 c -0.0043,0.561481 -0.195192,1.111901 -0.489409,1.590144 -0.294216,0.478242 -0.688715,0.888382 -1.117502,1.250903 -1.240313,1.04863 -2.78107,1.714475 -4.377315,2.014482 -0.842834,0.158407 -1.708392,0.218035 -2.560239,0.118946 -0.851847,-0.09909 -1.690528,-0.360196 -2.419654,-0.811679 -0.75686,-0.468656 -1.39631,-1.156391 -1.707107,-1.990586 -0.288196,-0.773533 -0.280186,-1.645913 -0.01968,-2.429204 0.260511,-0.78329 0.765863,-1.47668 1.403927,-2.000401 1.146276,-0.940859 2.656654,-1.314144 4.131459,-1.469436 1.64362,-0.173068 3.36471,-0.09578 4.855529,0.617589 0.614047,0.293828 1.184259,0.697371 1.608899,1.229414 0.424639,0.532043 0.696336,1.199122 0.691088,1.879828 z m -0.660229,-5.156441 c 0.210871,0.520397 0.245172,1.101959 0.156367,1.65639 -0.0888,0.55443 -0.29632,1.084318 -0.553737,1.583333 -0.744607,1.443456 -1.913273,2.648238 -3.273203,3.536265 -0.718058,0.468888 -1.49491,0.855212 -2.319834,1.089653 -0.824924,0.234442 -1.699685,0.314159 -2.546085,0.176068 -0.878594,-0.143344 -1.732554,-0.534021 -2.338925,-1.18578 -0.562276,-0.604364 -0.888722,-1.413403 -0.947794,-2.236762 -0.05907,-0.82336 0.142463,-1.657358 0.531539,-2.38539 0.698969,-1.307901 1.951527,-2.230768 3.254641,-2.938622 1.452276,-0.78888 3.071933,-1.376111 4.722265,-1.287553 0.679748,0.03648 1.360986,0.19109 1.956905,0.520132 0.59592,0.329041 1.102215,0.841367 1.357861,1.472266 z m -2.583256,-4.511272 c 0.393966,0.400088 0.648211,0.924255 0.778337,1.470466 0.130127,0.546211 0.141187,1.115176 0.09433,1.674715 -0.13554,1.618528 -0.754196,3.178831 -1.670775,4.519683 -0.483963,0.707985 -1.053841,1.36219 -1.726255,1.894471 -0.672413,0.53228 -1.45008,0.940686 -2.284897,1.137009 -0.866571,0.203792 -1.805033,0.169649 -2.614664,-0.20045 -0.750756,-0.343185 -1.361958,-0.965714 -1.731619,-1.703793 -0.369662,-0.738079 -0.502625,-1.585717 -0.421772,-2.407224 0.145252,-1.475827 0.949299,-2.807778 1.882335,-3.96043 1.039837,-1.284592 2.311481,-2.446938 3.870079,-2.996676 0.641964,-0.226429 1.330514,-0.344283 2.00699,-0.268337 0.676477,0.07595 1.340291,0.355524 1.817912,0.840566 z M 25.935213,8.0716091 c 0.517084,0.2188686 0.952565,0.60584 1.281812,1.060676 0.329247,0.4548361 0.557199,0.9762589 0.728035,1.5111379 0.49416,1.547193 0.519699,3.225475 0.186013,4.81502 -0.17619,0.839297 -0.452335,1.661787 -0.86987,2.410872 -0.417534,0.749084 -0.979714,1.424002 -1.675855,1.924852 -0.72262,0.519901 -1.60271,0.847491 -2.492343,0.815397 -0.824939,-0.02976 -1.627848,-0.371006 -2.251821,-0.911438 -0.623973,-0.540433 -1.071192,-1.272666 -1.310871,-2.06258 -0.430579,-1.419072 -0.197452,-2.957329 0.22346,-4.379299 0.469092,-1.584737 1.199127,-3.145241 2.428708,-4.2495822 0.506447,-0.4548625 1.097483,-0.8272411 1.751529,-1.0159525 0.654046,-0.1887114 1.374321,-0.1844465 2.001203,0.080897 z M 20.918624,6.7082962 c 0.561481,0.00433 1.111901,0.1951922 1.590144,0.4894085 0.478242,0.2942163 0.888382,0.6887152 1.250903,1.1175023 1.04863,1.2403133 1.714475,2.78107 2.014482,4.377315 0.158407,0.842834 0.218035,1.708392 0.118946,2.560239 -0.09909,0.851847 -0.360196,1.690528 -0.811679,2.419654 -0.468656,0.75686 -1.156391,1.39631 -1.990586,1.707107 -0.773533,0.288196 -1.645913,0.280186 -2.429204,0.01968 -0.78329,-0.260511 -1.47668,-0.765863 -2.000401,-1.403927 -0.940859,-1.146276 -1.314144,-2.656654 -1.469436,-4.131459 -0.173068,-1.64362 -0.09578,-3.36471 0.617589,-4.8555286 0.293828,-0.6140469 0.697371,-1.1842599 1.229414,-1.6088991 0.532043,-0.4246392 1.199122,-0.6963359 1.879828,-0.6910881 z m -5.156441,0.6602285 c 0.520397,-0.2108703 1.101959,-0.2451719 1.65639,-0.1563671 0.55443,0.088805 1.084318,0.2963204 1.583333,0.5537375 1.443456,0.7446068 2.648238,1.9132726 3.536265,3.2732029 0.468888,0.718058 0.855212,1.49491 1.089653,2.319834 0.234442,0.824924 0.314159,1.699685 0.176068,2.546085 -0.143344,0.878594 -0.534021,1.732554 -1.18578,2.338925 -0.604364,0.562276 -1.413403,0.888722 -2.236762,0.947794 -0.82336,0.05907 -1.657358,-0.142463 -2.38539,-0.531539 -1.307901,-0.698969 -2.230768,-1.951527 -2.938622,-3.254641 -0.78888,-1.452276 -1.376111,-3.071933 -1.287553,-4.722265 0.03648,-0.679748 0.19109,-1.3609856 0.520132,-1.9569051 0.329041,-0.5959196 0.841367,-1.1022146 1.472266,-1.3578612 z m -4.511272,2.5832561 c 0.400088,-0.3939661 0.924255,-0.6482107 1.470466,-0.7783372 0.546211,-0.1301265 1.115176,-0.1411864 1.674715,-0.094329 1.618528,0.1355406 3.178831,0.7541966 4.519683,1.6707752 0.707985,0.483963 1.36219,1.053841 1.894471,1.726255 0.53228,0.672413 0.940686,1.45008 1.137009,2.284897 0.203792,0.866571 0.169649,1.805033 -0.20045,2.614664 -0.343185,0.750756 -0.965714,1.361958 -1.703793,1.731619 -0.738079,0.369662 -1.585717,0.502625 -2.407224,0.421772 -1.475827,-0.145252 -2.807778,-0.949299 -3.96043,-1.882335 -1.284592,-1.039837 -2.446938,-2.311481 -2.996676,-3.870079 -0.226429,-0.641964 -0.344283,-1.330514 -0.268337,-2.00699 0.07595,-0.676477 0.355524,-1.340291 0.840566,-1.8179122 z M 8.0716091,14.064787 c 0.2188686,-0.517084 0.60584,-0.952565 1.060676,-1.281812 0.4548361,-0.329247 0.9762589,-0.557199 1.5111379,-0.728035 1.547193,-0.49416 3.225475,-0.519699 4.81502,-0.186013 0.839297,0.17619 1.661787,0.452335 2.410872,0.86987 0.749084,0.417534 1.424002,0.979714 1.924852,1.675855 0.519901,0.72262 0.847491,1.60271 0.815397,2.492343 -0.02976,0.824939 -0.371006,1.627848 -0.911438,2.251821 -0.540433,0.623973 -1.272666,1.071192 -2.06258,1.310871 -1.419072,0.430579 -2.957329,0.197452 -4.379299,-0.22346 C 11.67151,19.777135 10.111006,19.0471 9.0066648,17.817519 8.5518023,17.311072 8.1794237,16.720036 7.9907123,16.06599 7.8020009,15.411944 7.8062658,14.691669 8.0716091,14.064787 Z"/>
    <ellipse style="stroke-opacity:1;stroke-dasharray:none;stroke-width:0.5;stroke:#000000;fill-opacity:0;fill:#ffffff;"
             cx="20" cy="20" rx="0.45696244" ry="0.45696247"/>
    <g style="fill:#939393;fill-opacity:1;stroke:#000000;stroke-width:0.0034972;stroke-dasharray:none;stroke-opacity:1">
        <path d="M 8.8129472,25.675841 C 8.4991985,25.504023 8.2928636,25.347297 8.0229432,25.075778 7.238838,24.287031 7.0368997,23.218967 7.4360566,21.9717 7.4929018,21.794073 7.5680441,21.584788 7.6030397,21.506623 l 0.063628,-0.142118 0.1884475,0.162511 c 0.4275307,0.36869 1.0916578,0.747094 1.657272,0.944273 0.1538768,0.05364 0.2854861,0.101883 0.292465,0.107199 0.00698,0.0053 -0.04438,0.142537 -0.1141311,0.304934 -0.303841,0.707416 -0.5426208,1.605331 -0.6451876,2.426186 L 8.9878073,25.7716 Z"/>
        <path d="m 11.872998,29.532959 c -0.02885,-0.0057 -0.170488,-0.02937 -0.314748,-0.0527 -0.573669,-0.09279 -1.175535,-0.395426 -1.549457,-0.779107 -0.3836863,-0.393699 -0.6687312,-0.958017 -0.7959908,-1.575863 -0.06635,-0.322129 -0.1301949,-1.14108 -0.088958,-1.14108 0.012949,0 0.1202537,0.03258 0.238455,0.0724 0.4982979,0.167864 0.8496168,0.217809 1.5575568,0.221425 l 0.673056,0.0034 4.42e-4,0.507094 c 7.68e-4,0.880983 0.130441,1.722936 0.399924,2.596672 0.0548,0.177666 0.05174,0.181427 -0.12028,0.147725 z"/>
        <path d="m 14.595791,32.018709 c -0.526234,-0.109859 -0.930418,-0.333698 -1.361003,-0.75373 -0.328236,-0.320191 -0.589964,-0.691563 -0.801022,-1.13659 -0.188081,-0.396576 -0.194115,-0.424172 -0.09837,-0.449823 0.04382,-0.01174 0.136621,-0.02156 0.206232,-0.02182 0.386247,-0.0015 1.144334,-0.205924 1.750164,-0.472044 l 0.33796,-0.148454 0.129746,0.318754 c 0.300576,0.738444 0.813233,1.611747 1.305922,2.22462 0.115923,0.1442 0.199134,0.273818 0.184913,0.288038 -0.01422,0.01422 -0.151184,0.05905 -0.304364,0.09961 -0.35779,0.09475 -1.021575,0.12004 -1.350179,0.05144 z"/>
        <path d="m 18.570139,33.167813 c -0.630542,-0.140411 -1.190353,-0.458096 -1.80832,-1.026197 l -0.23458,-0.215649 0.260124,-0.134609 c 0.513428,-0.265687 1.100175,-0.72 1.485014,-1.149833 l 0.21461,-0.239701 0.303866,0.297994 c 0.605797,0.59409 1.167173,1.020211 1.886332,1.431847 l 0.428389,0.245205 -0.119165,0.104628 c -0.30383,0.266766 -0.838173,0.552454 -1.227222,0.656138 -0.30722,0.08188 -0.890419,0.09668 -1.189048,0.03018 z"/>
        <path d="m 22.574434,32.715138 c -0.357169,-0.06444 -0.522135,-0.110851 -0.899849,-0.253141 l -0.322812,-0.121607 0.162229,-0.179242 c 0.353684,-0.390776 0.756485,-1.097923 0.972914,-1.708027 l 0.09571,-0.269791 0.12705,0.05407 c 0.917294,0.390419 1.785273,0.627277 2.629535,0.717561 0.220106,0.02354 0.405642,0.04673 0.412301,0.05154 0.02705,0.01953 -0.218872,0.435426 -0.391827,0.662643 -0.65101,0.855256 -1.686696,1.244204 -2.785248,1.045991 z"/>
        <path d="m 26.073534,30.571132 c 0.154727,-0.481141 0.216546,-0.923163 0.221266,-1.5821 l 0.0042,-0.579805 0.161188,0.01548 c 0.250759,0.02409 1.274907,-0.05537 1.746934,-0.13554 0.234312,-0.0398 0.622401,-0.126178 0.862418,-0.191959 0.240017,-0.06578 0.44269,-0.119603 0.450383,-0.119603 0.02964,0 0.01169,0.214226 -0.04144,0.494488 -0.118457,0.624825 -0.408766,1.16588 -0.84179,1.568861 -0.554366,0.515905 -1.276671,0.783411 -2.239498,0.829401 l -0.426387,0.02037 z"/>
        <path d="M 29.660684,27.463518 C 29.616909,26.894021 29.442535,26.262352 29.16964,25.68471 l -0.149752,-0.316982 0.213273,-0.08129 c 0.797616,-0.304015 1.722535,-0.841523 2.390599,-1.389273 l 0.235744,-0.193288 0.07538,0.240328 c 0.16623,0.52999 0.176166,1.182511 0.02579,1.693805 -0.243233,0.827035 -0.984398,1.569613 -2.000864,2.004678 l -0.276266,0.118247 z"/>
        <path d="m 31.791665,23.219815 c -0.214596,-0.451859 -0.624831,-0.989484 -1.093648,-1.433259 l -0.297107,-0.281236 0.397063,-0.4102 c 0.589501,-0.609004 1.143367,-1.365673 1.462556,-1.998083 l 0.113562,-0.224999 0.0675,0.08511 c 0.547762,0.690706 0.768766,1.253691 0.767888,1.956115 -9.89e-4,0.79166 -0.310388,1.477646 -1.027929,2.279079 -0.117644,0.131398 -0.230901,0.238906 -0.251683,0.238906 -0.02078,0 -0.08297,-0.09515 -0.138199,-0.211434 z"/>
        <path d="m 32.121794,18.458567 c -0.35521,-0.324289 -1.071126,-0.732466 -1.643685,-0.93714 -0.125025,-0.04469 -0.239579,-0.09186 -0.254565,-0.104821 -0.01498,-0.01296 0.04508,-0.203297 0.133482,-0.422974 0.189933,-0.471987 0.365845,-1.039379 0.465802,-1.502412 0.06486,-0.300463 0.179861,-1.074203 0.179861,-1.210153 0,-0.04103 0.05627,-0.02296 0.236061,0.07581 0.762747,0.419031 1.288678,1.096767 1.460998,1.882703 0.07982,0.364067 0.05663,1.108469 -0.04647,1.491231 -0.108691,0.403539 -0.28873,0.874463 -0.333705,0.872867 -0.02222,-7.89e-4 -0.111226,-0.06609 -0.197781,-0.14511 z"/>
        <path d="M 30.598,13.935639 C 30.115218,13.777046 29.856241,13.738942 29.127979,13.71935 l -0.703148,-0.01892 -0.0211,-0.651427 c -0.0275,-0.848982 -0.118772,-1.467637 -0.321099,-2.176502 -0.04726,-0.165579 -0.09673,-0.329212 -0.10994,-0.363628 -0.02209,-0.05756 -0.0061,-0.06062 0.200287,-0.03821 1.333569,0.144862 2.258041,0.957613 2.589577,2.276632 0.06163,0.245181 0.140246,1.284194 0.09633,1.27303 -0.0075,-0.0019 -0.124856,-0.04001 -0.26088,-0.08469 z"/>
        <path d="m 25.334473,10.885774 c -0.333551,-0.884363 -0.891868,-1.8562036 -1.461691,-2.5443079 -0.07935,-0.09582 -0.144271,-0.1845865 -0.144271,-0.1972579 0,-0.012671 0.129833,-0.058922 0.288519,-0.1027794 0.4272,-0.1180689 1.061589,-0.1341682 1.468254,-0.037261 0.677613,0.1614738 1.298501,0.6126487 1.742152,1.2659541 0.125583,0.184929 0.521633,0.9549001 0.522535,1.0158741 1.75e-4,0.01194 -0.113775,0.03254 -0.253226,0.04578 -0.609025,0.05781 -1.376477,0.273593 -1.88641,0.530391 l -0.239312,0.120516 z"/>
        <path d="M 21.175554,9.2724737 C 20.577493,8.6832157 19.785925,8.0947848 19.157024,7.771951 19.017131,7.7001396 18.902605,7.6319032 18.902523,7.6203147 c -3.2e-4,-0.044919 0.424992,-0.3519613 0.66952,-0.4833422 0.141399,-0.075971 0.382987,-0.1819185 0.536864,-0.2354388 0.256032,-0.089051 0.322813,-0.097323 0.786871,-0.097465 0.482387,-1.48e-4 0.523281,0.00543 0.839328,0.1145308 0.397749,0.137302 0.700522,0.2975839 1.034564,0.5476787 0.27495,0.2058521 0.679065,0.569926 0.679065,0.6117809 0,0.014829 -0.05115,0.047709 -0.113659,0.073065 -0.417668,0.1694179 -1.046796,0.6356047 -1.51254,1.1208 L 21.507788,9.599817 Z"/>
        <path d="M 17.152438,9.7041087 C 16.341933,9.3580094 15.009385,9.0237909 14.436762,9.0229855 c -0.08061,-1.134e-4 -0.156593,-0.016429 -0.168847,-0.036256 -0.01225,-0.019827 0.0284,-0.1260549 0.09035,-0.236061 0.297092,-0.5275812 0.758115,-0.980819 1.236144,-1.2152689 0.421061,-0.2065098 0.653927,-0.2639139 1.157185,-0.2852595 0.34186,-0.0145 0.486306,-0.00404 0.779119,0.056442 0.346188,0.071501 1.002895,0.2842836 1.063056,0.3444448 0.01603,0.016028 -0.0436,0.1143585 -0.132501,0.2185118 -0.365791,0.4285357 -0.722096,1.0550529 -0.936207,1.6462016 l -0.108999,0.3009405 z"/>
        <path d="m 10.474118,11.892752 c 0,-0.07981 0.02499,-0.266406 0.05554,-0.414663 0.158714,-0.770255 0.551195,-1.375269 1.151098,-1.7744304 0.535452,-0.3562776 1.1168,-0.5329582 1.862153,-0.5659369 0.266497,-0.011791 0.46319,-0.00713 0.462933,0.010965 -2.45e-4,0.017307 -0.03982,0.1547535 -0.08794,0.3054368 -0.15027,0.4705459 -0.203581,0.8628245 -0.206338,1.5183005 l -0.0025,0.603222 -0.34972,4.06e-4 c -0.435042,5.06e-4 -1.084491,0.05449 -1.521283,0.126459 -0.303337,0.04998 -1.1557,0.253691 -1.302707,0.311344 -0.05231,0.02051 -0.0612,0.0029 -0.0612,-0.121102 z"/>
        <path d="M 8.0831387,16.126691 C 7.9744013,15.760532 7.9414432,15.526338 7.9422269,15.125396 c 0.00122,-0.622517 0.1345349,-1.04436 0.4863075,-1.538769 0.1874164,-0.26341 0.561868,-0.623804 0.8507449,-0.818807 0.1995503,-0.134704 0.9639237,-0.526501 1.0287217,-0.527294 0.01443,-1.77e-4 0.02623,0.08417 0.02623,0.187444 0,0.519086 0.253415,1.412865 0.620806,2.189539 0.0048,0.01023 -0.08959,0.05581 -0.209833,0.101306 -0.688652,0.260536 -1.5904383,0.777743 -2.244959,1.287565 l -0.3677641,0.286461 z"/>
        <path d="M 7.4540518,20.91235 C 7.237167,20.644415 6.9639236,20.119747 6.87674,19.803826 6.5994209,18.798924 6.9255067,17.765088 7.8228585,16.804212 l 0.2468257,-0.264298 0.1848621,0.334581 c 0.2562721,0.463826 0.5233302,0.810888 0.9578301,1.244772 l 0.3714968,0.370971 -0.3302888,0.345955 C 8.6579243,19.460108 8.197116,20.076752 7.8206687,20.753691 l -0.201598,0.36252 z"/>
    </g>
    <g style="fill:#ffbf00;fill-opacity:1;stroke:#000000;stroke-width:0.0034972;stroke-dasharray:none;stroke-opacity:1">
        <path d="M 9.5298735,22.335018 C 8.9366463,22.107898 8.3013865,21.738619 7.9058584,21.390971 7.7344096,21.240277 7.7335167,21.238389 7.7802767,21.125501 c 0.095017,-0.229393 0.533664,-0.929848 0.8262135,-1.319344 0.1653683,-0.220168 0.4817159,-0.58809 0.7029947,-0.817604 L 9.71181,18.571255 9.8569028,18.689077 c 0.2865352,0.232681 0.8875602,0.602433 1.3717112,0.843881 l 0.493064,0.245893 -0.224733,0.243715 c -0.477633,0.517977 -1.046078,1.338662 -1.431127,2.066171 -0.1057547,0.199812 -0.2027216,0.362574 -0.2154819,0.361692 -0.01276,-8.82e-4 -0.1569685,-0.05282 -0.3204626,-0.115411 z"/>
        <path d="M 10.070039,26.091411 C 9.8766483,26.057349 9.5872738,25.985804 9.4269849,25.932423 l -0.2914342,-0.09706 0.022963,-0.301529 c 0.042815,-0.562218 0.1699424,-1.178237 0.3761732,-1.822812 0.1069167,-0.334169 0.3702997,-1.011126 0.4106634,-1.055504 0.011921,-0.01311 0.1751147,0.01342 0.3626527,0.05895 0.465246,0.112945 1.009237,0.190269 1.521281,0.216237 0.235624,0.01195 0.428407,0.02782 0.428407,0.03527 0,0.0074 -0.05599,0.174196 -0.124418,0.370552 -0.235385,0.67542 -0.428504,1.56728 -0.504069,2.327892 -0.01979,0.199193 -0.03598,0.391976 -0.03598,0.428407 0,0.06248 -0.03323,0.06608 -0.585781,0.06338 -0.392997,-0.0019 -0.701502,-0.02324 -0.937402,-0.06479 z"/>
        <path d="m 12.12287,29.336501 c -0.11185,-0.340333 -0.239048,-0.882487 -0.301383,-1.284583 -0.0703,-0.453447 -0.129782,-1.401896 -0.101507,-1.618457 l 0.02125,-0.162755 0.162058,-0.02315 c 0.562292,-0.08031 1.458133,-0.311168 1.892724,-0.487758 l 0.199905,-0.08123 0.0217,0.458821 c 0.03431,0.725308 0.228363,1.751361 0.46009,2.432666 0.04847,0.142521 0.08813,0.278266 0.08813,0.301654 0,0.0467 -0.520595,0.285081 -0.918752,0.42069 -0.308034,0.104913 -0.824605,0.210783 -1.18422,0.242703 l -0.266942,0.0237 z"/>
        <path d="m 16.269756,31.605957 c -0.540688,-0.640415 -1.02815,-1.453716 -1.384525,-2.309999 l -0.139536,-0.335272 0.198593,-0.111132 c 0.413086,-0.231161 1.031993,-0.694661 1.473991,-1.103873 l 0.201374,-0.186437 0.181646,0.373609 c 0.333411,0.685754 0.750838,1.332688 1.286001,1.993055 l 0.293558,0.362239 -0.07101,0.09972 c -0.141,0.198017 -0.785583,0.777227 -1.096071,0.984909 -0.31064,0.207784 -0.689615,0.416783 -0.755746,0.416783 -0.0183,0 -0.10302,-0.08262 -0.188277,-0.183603 z"/>
        <path d="m 20.940237,32.123564 c -0.700381,-0.376238 -1.390929,-0.885803 -2.010013,-1.48322 l -0.356692,-0.344208 0.107345,-0.136331 c 0.313274,-0.39787 0.959122,-1.507211 1.066678,-1.83218 0.01257,-0.03799 0.08779,0.01024 0.276738,0.17744 0.613787,0.543128 1.214162,0.963766 1.940884,1.359833 0.24826,0.135303 0.462902,0.246005 0.476982,0.246005 0.03234,0 -0.145166,0.48382 -0.299017,0.815021 -0.196199,0.422361 -0.463174,0.826871 -0.817788,1.239077 l -0.09734,0.113152 z"/>
        <path d="m 25.360491,30.826871 c -0.485309,-0.0587 -1.023826,-0.169262 -1.469899,-0.30178 -0.503071,-0.149451 -1.246214,-0.44952 -1.246214,-0.503201 0,-0.0249 0.03892,-0.207844 0.08648,-0.406539 0.09201,-0.384359 0.174636,-0.984729 0.211685,-1.53817 l 0.0226,-0.337579 0.407913,0.13758 c 0.76588,0.258316 1.697854,0.452328 2.425257,0.504873 l 0.338689,0.02447 0.02467,0.230342 c 0.04479,0.418233 -0.0327,1.246179 -0.161354,1.723953 -0.07445,0.27648 -0.177998,0.519518 -0.219712,0.515679 -0.02266,-0.0021 -0.211712,-0.02442 -0.420113,-0.04962 z"/>
        <path d="m 26.268705,28.25411 c -0.0081,-0.02705 -0.0329,-0.178449 -0.05507,-0.336442 -0.05706,-0.406641 -0.218459,-1.0453 -0.379856,-1.50309 l -0.138014,-0.391469 0.179193,-0.01814 c 0.09856,-0.01 0.319003,-0.02759 0.489882,-0.03914 0.618452,-0.0418 1.716867,-0.266399 2.323373,-0.475068 0.104166,-0.03584 0.201817,-0.05748 0.217003,-0.04809 0.04504,0.02783 0.335908,0.745091 0.43235,1.066124 0.117108,0.389831 0.202614,0.898297 0.189391,1.126231 l -0.01058,0.182311 -0.306889,0.0976 c -0.657489,0.209109 -1.439081,0.331262 -2.341241,0.365904 -0.486207,0.01867 -0.587269,0.01417 -0.599544,-0.02673 z"/>
        <path d="m 28.784702,24.953772 c -0.225019,-0.383326 -0.617946,-0.906571 -0.95999,-1.27838 l -0.274073,-0.297922 0.335499,-0.156714 c 0.663465,-0.309908 1.467844,-0.830188 2.102363,-1.359828 0.163494,-0.13647 0.306841,-0.248149 0.318548,-0.248176 0.05503,-1.25e-4 0.873644,0.887494 1.033596,1.120725 0.218379,0.318424 0.474399,0.796425 0.448776,0.837884 -0.04331,0.07007 -0.588237,0.485339 -0.944106,0.719458 -0.46816,0.307993 -0.994508,0.589028 -1.499218,0.800482 -0.208063,0.08717 -0.380765,0.157862 -0.383783,0.157091 -0.003,-7.69e-4 -0.08294,-0.133349 -0.177612,-0.29462 z"/>
        <path d="m 30.145875,21.3122 c -0.245416,-0.206214 -0.84106,-0.574088 -1.331668,-0.822447 l -0.527312,-0.266941 0.245446,-0.275527 c 0.51201,-0.574762 1.119644,-1.468219 1.443104,-2.121921 0.07332,-0.148177 0.151915,-0.269414 0.174654,-0.269414 0.07727,0 0.830705,0.317073 1.078261,0.453768 0.283051,0.156295 0.666015,0.423423 0.891077,0.621551 l 0.155017,0.136466 -0.185449,0.347095 c -0.213526,0.399646 -0.563895,0.923176 -0.887836,1.32663 -0.271862,0.33859 -0.866798,0.962873 -0.915406,0.96056 -0.01923,-9.16e-4 -0.08218,-0.04133 -0.139888,-0.08982 z"/>
        <path d="m 29.696118,17.289656 c -0.436706,-0.114999 -0.941503,-0.186559 -1.494406,-0.211848 l -0.475338,-0.02174 0.134224,-0.381057 c 0.251787,-0.714815 0.435032,-1.572647 0.517153,-2.420974 0.02032,-0.209963 0.04484,-0.389631 0.05447,-0.399264 0.03503,-0.03503 1.056583,-0.01431 1.328964,0.02696 0.331718,0.05025 0.77244,0.15782 0.96924,0.236563 l 0.141024,0.05643 -0.02288,0.265506 c -0.05332,0.618735 -0.220466,1.378803 -0.450615,2.049079 -0.146631,0.42704 -0.341564,0.893544 -0.370586,0.886868 -0.01176,-0.0027 -0.160821,-0.04164 -0.331249,-0.08652 z"/>
        <path d="m 25.989138,13.897124 c -0.04392,-0.768967 -0.269579,-1.930102 -0.506519,-2.606289 l -0.0692,-0.197472 0.322167,-0.141847 c 0.647021,-0.284879 1.21364,-0.438252 1.779856,-0.481775 l 0.297578,-0.02287 0.0894,0.293402 c 0.236469,0.776054 0.336745,1.41442 0.361963,2.304292 l 0.01933,0.681954 -0.391175,0.06273 c -0.551249,0.0884 -1.277051,0.286254 -1.833724,0.49987 -0.03599,0.01381 -0.05147,-0.07327 -0.06968,-0.391992 z"/>
        <path d="m 23.223644,12.113388 c -0.278543,-0.609107 -0.8447,-1.482017 -1.373779,-2.1181129 l -0.25284,-0.3039827 0.358767,-0.3604855 c 0.40243,-0.4043576 0.747358,-0.6754401 1.160708,-0.9122115 0.433453,-0.2482862 0.430515,-0.2484318 0.664325,0.032908 0.265522,0.3194977 0.73958,1.0354081 0.957543,1.4460598 0.162728,0.3065838 0.493939,1.0552338 0.493939,1.1164688 0,0.01447 -0.134576,0.108545 -0.299059,0.209058 -0.360672,0.2204 -0.877076,0.608584 -1.256736,0.944696 -0.153624,0.136003 -0.287392,0.247134 -0.297262,0.246956 -0.0099,-1.74e-4 -0.07989,-0.135786 -0.155606,-0.301354 z"/>
        <path d="M 19.899075,11.430726 C 19.327499,10.921867 18.513641,10.3681 17.847659,10.034896 17.687219,9.9546254 17.55112,9.8846366 17.545216,9.8793658 c -0.02224,-0.019853 0.23541,-0.6427495 0.404936,-0.9789885 0.186416,-0.3697389 0.426945,-0.7300446 0.671719,-1.0062152 l 0.147913,-0.1668869 0.319842,0.1685139 c 0.665418,0.350587 1.36303,0.8672389 1.982569,1.4682932 l 0.351127,0.3406512 -0.197158,0.2622901 c -0.253619,0.3374024 -0.641392,0.9910694 -0.839787,1.4156224 -0.08558,0.183138 -0.159416,0.331924 -0.164078,0.330635 -0.0047,-0.0013 -0.150112,-0.128438 -0.323224,-0.282555 z"/>
        <path d="m 16.699136,12.143535 c -0.698434,-0.248897 -1.772397,-0.473853 -2.48525,-0.520569 l -0.346271,-0.02269 -0.02294,-0.122289 c -0.0369,-0.196689 0.01106,-1.152737 0.07392,-1.473404 0.07773,-0.3965786 0.221186,-0.8416521 0.278345,-0.8635861 0.134594,-0.051649 1.412839,0.1793891 1.995106,0.3606077 0.391444,0.1218289 1.171562,0.4303777 1.171562,0.463371 0,0.015077 -0.03068,0.1515404 -0.06817,0.3032504 -0.107113,0.433415 -0.179361,0.909971 -0.223421,1.473698 l -0.04064,0.52001 z"/>
        <path d="m 10.964043,14.290732 c -0.27529,-0.596447 -0.471152,-1.328811 -0.496007,-1.854665 l -0.0114,-0.241287 0.192346,-0.06655 c 0.660122,-0.228407 1.526536,-0.372248 2.419238,-0.401638 l 0.653152,-0.0215 0.02237,0.136415 c 0.127715,0.779017 0.267912,1.341 0.466967,1.871847 l 0.09997,0.266607 -0.370765,0.02407 c -0.793891,0.05155 -1.624363,0.20295 -2.404611,0.438387 l -0.439969,0.132758 z"/>
        <path d="M 9.2701554,17.971559 C 8.995974,17.692572 8.7622406,17.414024 8.6132841,17.188744 8.382826,16.840203 8.1733381,16.45067 8.202874,16.425606 c 0.7560075,-0.641534 1.4924208,-1.10368 2.34971,-1.474593 0.24512,-0.106053 0.457575,-0.192143 0.472122,-0.191311 0.01455,8.31e-4 0.103509,0.134039 0.197693,0.296017 0.219476,0.377456 0.642859,0.941108 0.970703,1.292299 0.174452,0.186876 0.24112,0.280522 0.207671,0.29171 -0.131371,0.04394 -0.932047,0.4705 -1.220549,0.650245 -0.370157,0.230619 -0.898106,0.617282 -1.2472451,0.913466 l -0.2371894,0.201214 z"/>
    </g>
    <g style="fill:#ffff5c;fill-opacity:1;stroke:#000000;stroke-width:0.0034972;stroke-dasharray:none;stroke-opacity:1">
        <path d="m 23.938056,15.050731 c -5.95e-4,-0.643019 -0.124002,-1.358438 -0.351904,-2.040072 -0.166609,-0.498315 -0.197281,-0.412454 0.299733,-0.839063 0.58673,-0.503618 1.35458,-1.024936 1.413184,-0.959458 0.03365,0.0376 0.179875,0.513055 0.282329,0.918021 0.126629,0.500523 0.247476,1.2968 0.269645,1.77673 l 0.02126,0.460149 -0.18885,0.08055 c -0.446875,0.190608 -1.361912,0.663929 -1.666418,0.861988 l -0.07869,0.05118 -2.87e-4,-0.310027 z"/>
        <path d="m 25.533518,16.922285 c 0.250644,-0.593733 0.418291,-1.352235 0.456726,-2.066411 l 0.02203,-0.40941 0.580488,-0.190613 c 0.599548,-0.196872 1.082296,-0.314432 1.466123,-0.357034 l 0.221167,-0.02455 -0.02324,0.258358 c -0.0752,0.835846 -0.306795,1.922931 -0.54667,2.566036 -0.116631,0.312686 -0.11793,0.314398 -0.257111,0.338961 -0.07694,0.01358 -0.273656,0.02591 -0.43715,0.02739 -0.27176,0.0025 -1.037509,0.06998 -1.441285,0.127062 l -0.164807,0.0233 z"/>
        <path d="m 27.925152,20.08966 c -0.25681,-0.111714 -1.19914,-0.419743 -1.564161,-0.511292 l -0.292588,-0.07338 0.275929,-0.283819 c 0.462362,-0.475586 0.911819,-1.133002 1.197809,-1.752026 0.10073,-0.218031 0.155088,-0.297881 0.20278,-0.297881 0.426724,0 1.418659,0.127523 1.938817,0.249255 l 0.307246,0.0719 -0.213973,0.407387 c -0.375338,0.714611 -0.937437,1.514834 -1.42083,2.02274 l -0.238683,0.250788 z"/>
        <path d="m 27.241883,23.077434 c -0.225067,-0.232083 -0.81371,-0.740823 -1.150325,-0.994179 -0.145599,-0.109587 -0.264533,-0.209146 -0.264296,-0.221241 2.37e-4,-0.0121 0.114334,-0.06688 0.253547,-0.121736 0.556913,-0.219459 1.241732,-0.653551 1.799673,-1.140772 0.235962,-0.206054 0.301855,-0.246742 0.367206,-0.22675 0.199505,0.06103 1.002841,0.498048 1.378506,0.749906 0.51758,0.347003 0.549253,0.372249 0.522114,0.416161 -0.05317,0.08603 -0.777068,0.637973 -1.208859,0.921705 -0.452262,0.297183 -1.377499,0.79586 -1.476625,0.79586 -0.02607,0 -0.125491,-0.08053 -0.220941,-0.178954 z"/>
        <path d="m 21.776112,14.018209 c -0.03874,-0.102488 -0.132066,-0.309661 -0.207388,-0.460386 -0.285075,-0.570455 -0.591762,-1.007675 -1.121076,-1.598231 l -0.12446,-0.138861 0.211363,-0.431923 c 0.292071,-0.596854 0.647225,-1.177728 0.927159,-1.5164208 l 0.05148,-0.06228 0.08316,0.091556 c 0.04574,0.050356 0.190182,0.2251808 0.320984,0.3884978 0.494202,0.61705 0.97549,1.39333 1.26011,2.032459 l 0.10556,0.237038 -0.138586,0.135645 c -0.303773,0.297327 -0.967818,1.075913 -1.209636,1.418284 -0.03498,0.04953 -0.06914,0.09026 -0.07592,0.09051 -0.0068,2.49e-4 -0.04401,-0.0834 -0.08275,-0.185888 z"/>
        <path d="M 19.315634,13.756218 C 18.811277,13.245824 18.26191,12.858026 17.544006,12.505626 L 17.175368,12.32467 v -0.126202 c 0,-0.330215 0.06748,-1.016098 0.139951,-1.422602 0.04206,-0.2359 0.154459,-0.705134 0.177993,-0.74306 0.02984,-0.048091 0.703198,0.318324 1.268621,0.690334 0.449066,0.295455 1.047473,0.771823 1.314263,1.046232 l 0.100381,0.103247 -0.08498,0.211096 c -0.17412,0.432513 -0.47865,1.392864 -0.566349,1.786011 l -0.01795,0.08045 z"/>
        <path d="m 17.015646,14.510285 c -0.683007,-0.29922 -1.375458,-0.448928 -2.357742,-0.509744 l -0.206829,-0.01281 -0.04619,-0.120527 c -0.21626,-0.564306 -0.409471,-1.259121 -0.486544,-1.749684 -0.02484,-0.158124 -0.04924,-0.312904 -0.05422,-0.343957 l -0.0091,-0.05646 0.132148,0.0098 c 0.721718,0.05359 1.45181,0.179068 2.102044,0.361262 0.286462,0.08027 0.914373,0.295608 0.938997,0.322029 0.0083,0.0089 0.0258,0.250896 0.03898,0.537862 0.02453,0.534082 0.06276,0.970467 0.118983,1.358276 0.03618,0.249535 0.03801,0.282111 0.01577,0.28005 -0.0088,-8.13e-4 -0.09264,-0.03507 -0.186342,-0.07612 z"/>
        <path d="m 12.434442,16.414029 c -0.31086,-0.318839 -0.61487,-0.69332 -0.886041,-1.091429 -0.159286,-0.233849 -0.378555,-0.589322 -0.378555,-0.613703 0,-0.02002 0.574789,-0.200259 0.894439,-0.28047 0.713955,-0.179155 1.626379,-0.308808 2.174641,-0.309009 l 0.140856,-5.2e-5 0.03835,0.101157 c 0.130168,0.343366 0.574865,1.224483 0.832068,1.648649 0.06325,0.104304 0.114995,0.194099 0.114995,0.199543 0,0.0054 -0.165312,0.01 -0.367359,0.01007 -0.741007,3.53e-4 -1.400894,0.124548 -2.196047,0.413311 -0.115598,0.04198 -0.211671,0.07633 -0.213495,0.07633 -0.0018,0 -0.07106,-0.06948 -0.15385,-0.154398 z"/>
        <path d="m 11.414752,19.478738 c -0.460609,-0.225479 -0.66476,-0.339201 -1.008641,-0.561861 -0.277318,-0.17956 -0.5779247,-0.4037 -0.5779247,-0.430915 0,-0.03046 0.3899477,-0.356434 0.7264797,-0.607291 0.537053,-0.400329 1.152578,-0.771336 1.699691,-1.024488 l 0.285905,-0.13229 0.342332,0.315842 c 0.39463,0.364092 0.701446,0.62291 1.074,0.905986 0.244206,0.185553 0.259539,0.201346 0.212962,0.219357 -0.824868,0.318978 -1.549937,0.771813 -2.159121,1.348456 -0.09653,0.09137 -0.179008,0.165942 -0.183283,0.165707 -0.0043,-2.35e-4 -0.189855,-0.08956 -0.4124,-0.198503 z"/>
        <path d="m 11.798083,22.805363 c -0.532037,-0.03199 -1.175132,-0.133198 -1.633179,-0.25701 l -0.163742,-0.04426 0.104496,-0.208232 c 0.255914,-0.509968 0.603146,-1.066066 0.969797,-1.553145 0.204855,-0.272141 0.620365,-0.761321 0.738977,-0.869998 l 0.05442,-0.04986 0.252116,0.100035 c 0.461425,0.183085 1.46371,0.498421 1.762199,0.554418 l 0.07242,0.01359 -0.161091,0.152408 c -0.336989,0.318825 -0.730698,0.820251 -1.00701,1.282522 -0.14194,0.237467 -0.401014,0.747839 -0.434397,0.855755 -0.01695,0.0548 -0.02991,0.05535 -0.555004,0.02378 z"/>
        <path d="m 11.723983,26.074787 c 2.4e-4,-0.03383 0.014,-0.200463 0.03058,-0.3703 0.08181,-0.837947 0.256967,-1.636954 0.522878,-2.385172 0.06036,-0.169837 0.114505,-0.324156 0.120326,-0.34293 0.0091,-0.02951 0.07607,-0.03583 0.493406,-0.04665 0.493093,-0.01278 0.951619,-0.05052 1.436598,-0.118241 0.17785,-0.02484 0.268754,-0.03016 0.262083,-0.01533 -0.354561,0.787735 -0.542721,1.579537 -0.580433,2.442545 l -0.01361,0.311532 -0.066,0.02239 c -0.0363,0.01231 -0.190583,0.06688 -0.34285,0.121265 -0.55887,0.199596 -1.315819,0.388047 -1.719667,0.428131 l -0.143749,0.01427 z"/>
        <path d="m 14.694337,28.813687 c -0.03061,-0.04952 -0.207321,-0.644735 -0.288133,-0.970496 -0.152072,-0.61302 -0.257507,-1.360636 -0.282348,-2.002062 l -0.0083,-0.214744 0.193579,-0.08068 c 0.312447,-0.130221 1.017667,-0.484388 1.396812,-0.70149 l 0.351387,-0.201207 0.01441,0.418935 c 0.02642,0.767951 0.177672,1.516086 0.449002,2.220818 l 0.0542,0.140782 -0.248159,0.224978 c -0.452402,0.410142 -0.699662,0.603441 -1.142598,0.89324 -0.381203,0.249409 -0.472449,0.300063 -0.489838,0.271926 z"/>
        <path d="m 18.305376,29.984057 c -0.622442,-0.73545 -1.207733,-1.659015 -1.534517,-2.421403 l -0.04789,-0.11173 0.188932,-0.197698 c 0.373024,-0.390335 0.922935,-1.041895 1.151975,-1.364916 l 0.07879,-0.111123 0.103095,0.256472 c 0.269373,0.670128 0.697697,1.336158 1.248552,1.941453 0.131115,0.144073 0.16907,0.199223 0.159442,0.231676 -0.03035,0.102304 -0.380875,0.80074 -0.521173,1.038458 -0.200676,0.340024 -0.488453,0.764182 -0.634921,0.935821 -0.0071,0.0083 -0.09358,-0.08039 -0.192285,-0.19701 z"/>
        <path d="m 22.17997,29.833736 c -0.783977,-0.410694 -1.598593,-0.980579 -2.154319,-1.507108 l -0.205718,-0.19491 0.08526,-0.207371 c 0.122176,-0.297174 0.382825,-1.088415 0.485726,-1.474494 0.04839,-0.181549 0.0924,-0.343431 0.09781,-0.359736 0.0064,-0.01918 0.098,0.05648 0.259569,0.214311 0.526271,0.514091 1.153253,0.943338 1.83109,1.253609 l 0.228823,0.104741 -0.0022,0.314597 c -0.0026,0.367817 -0.03414,0.705619 -0.105856,1.132609 -0.06713,0.399703 -0.181298,0.875126 -0.21005,0.874698 -0.01245,-1.92e-4 -0.152008,-0.06811 -0.310132,-0.150946 z"/>
        <path d="m 25.917449,28.266744 c -0.595184,-0.05185 -1.14086,-0.140144 -1.68759,-0.27307 -0.36764,-0.08938 -0.964674,-0.27602 -1.178628,-0.368447 l -0.09772,-0.04221 -0.01412,-0.40606 c -0.01734,-0.498644 -0.04427,-0.829902 -0.110147,-1.354703 -0.02789,-0.222195 -0.04843,-0.406266 -0.04565,-0.409046 0.0028,-0.0028 0.129247,0.04663 0.281036,0.109806 0.64201,0.2672 1.294251,0.411068 2.109616,0.465329 l 0.374785,0.02494 0.07269,0.191665 c 0.242212,0.638639 0.413844,1.306322 0.507744,1.975221 l 0.0142,0.101157 -0.07052,-0.0036 c -0.03879,-0.002 -0.10885,-0.0069 -0.155702,-0.011 z"/>
        <path d="m 25.547693,25.701356 c -0.153218,-0.38061 -0.588154,-1.225695 -0.908103,-1.764452 -0.0035,-0.0059 0.167618,-0.01195 0.380213,-0.01355 0.726191,-0.0055 1.422343,-0.138802 2.190897,-0.419661 l 0.207146,-0.0757 0.223593,0.238485 c 0.256333,0.273405 0.56134,0.649595 0.767913,0.94713 0.224842,0.32385 0.424787,0.663825 0.402757,0.684827 -0.03135,0.02989 -0.543514,0.187749 -0.903467,0.278469 -0.651625,0.164231 -1.355776,0.269635 -1.937438,0.290013 l -0.351902,0.01233 z"/>
    </g>
    <g style="fill:#ffd558;fill-opacity:1;stroke:#000000;stroke-width:0.00212962;stroke-dasharray:none;stroke-opacity:1">
        <path d="m 17.897704,16.981613 c -0.05528,-0.06661 -0.479165,-0.331186 -0.715097,-0.446342 -0.425126,-0.2075 -1.049798,-0.386161 -1.494032,-0.427305 l -0.155781,-0.01443 -0.06912,-0.108618 c -0.306395,-0.481502 -0.982467,-1.81922 -0.940585,-1.861102 0.01756,-0.01757 0.659732,0.03182 0.927285,0.07131 0.520344,0.07681 1.125495,0.250655 1.575881,0.452722 l 0.223573,0.100308 0.01839,0.09555 c 0.149745,0.777931 0.358527,1.46604 0.599228,1.974942 0.0865,0.182882 0.09794,0.244518 0.03025,0.162956 z"/>
        <path d="m 14.081719,17.884002 c -0.395505,-0.299075 -0.853648,-0.687105 -1.152511,-0.976135 l -0.254582,-0.246204 0.39228,-0.130045 c 0.55871,-0.185219 0.99805,-0.27757 1.542272,-0.324191 0.289689,-0.02482 0.588367,-0.02828 0.745367,-0.0086 l 0.10648,0.01332 0.117129,0.183425 c 0.135744,0.212577 0.460649,0.649464 0.643303,0.865025 0.06948,0.08199 0.262213,0.286913 0.428309,0.455384 0.25099,0.254578 0.291202,0.303731 0.238103,0.291041 -0.79393,-0.189743 -1.515686,-0.180488 -2.298308,0.02947 l -0.226047,0.06064 z"/>
        <path d="m 13.742623,20.315337 c -0.550794,-0.142144 -1.078243,-0.311693 -1.566533,-0.503563 -0.108344,-0.04257 -0.19699,-0.08447 -0.19699,-0.09311 0,-0.02004 0.300554,-0.290019 0.520708,-0.467739 0.437843,-0.353449 1.080856,-0.726042 1.597766,-0.925823 l 0.243053,-0.09394 0.230109,0.153592 c 0.342543,0.228639 0.577772,0.366783 0.932882,0.547857 0.289383,0.147559 0.844415,0.383017 0.902866,0.383017 0.01293,0 0.02352,0.0096 0.02352,0.0213 0,0.01171 -0.02826,0.0213 -0.06281,0.0213 -0.113738,0 -0.51375,0.0865 -0.734637,0.158853 -0.4698,0.153895 -0.92062,0.390192 -1.324424,0.694194 -0.123407,0.09291 -0.230739,0.172495 -0.238516,0.176862 -0.0078,0.0044 -0.154924,-0.02839 -0.326994,-0.0728 z"/>
        <path d="m 12.468912,22.818318 c 0,-0.03874 0.300342,-0.620516 0.439762,-0.851835 0.287645,-0.477246 0.727372,-1.023813 1.057063,-1.313897 l 0.138471,-0.121837 0.252485,0.05129 c 0.618857,0.12572 1.361485,0.19596 1.837128,0.173761 l 0.285577,-0.01333 -0.177315,0.10657 c -0.284873,0.171213 -0.482381,0.329302 -0.768924,0.615461 -0.290612,0.290222 -0.524318,0.589197 -0.722214,0.923913 -0.06902,0.116737 -0.128307,0.220706 -0.131753,0.231042 -0.02306,0.06917 -2.21028,0.265952 -2.21028,0.198858 z"/>
        <path d="m 14.130219,25.293449 c 7.45e-4,-0.711917 0.216621,-1.660886 0.536903,-2.360168 l 0.08415,-0.18372 0.23775,-0.04679 c 0.672863,-0.132415 1.324456,-0.335171 1.81737,-0.565511 0.112658,-0.05265 0.20849,-0.09572 0.212961,-0.09572 0.0045,0 -0.03865,0.06103 -0.09583,0.135631 -0.40532,0.528822 -0.69827,1.270313 -0.804033,2.035104 -0.0187,0.135255 -0.03848,0.253159 -0.04395,0.262008 -0.01435,0.02322 -0.458895,0.282524 -0.806569,0.470469 -0.261972,0.141617 -0.827086,0.414416 -1.059093,0.51126 l -0.07986,0.03334 2.05e-4,-0.195903 z"/>
        <path d="M 16.655048,27.289882 C 16.596155,27.146011 16.438867,26.65717 16.38631,26.454661 16.253817,25.944154 16.196654,25.486817 16.196113,24.932977 l -3.69e-4,-0.377531 0.228933,-0.153217 c 0.52338,-0.350278 0.919003,-0.673408 1.324652,-1.081924 0.157554,-0.158669 0.279555,-0.270451 0.271114,-0.248405 -0.0084,0.02205 -0.04002,0.156212 -0.07018,0.298147 -0.04504,0.211987 -0.05684,0.336401 -0.06606,0.69682 -0.01316,0.514075 0.01855,0.813775 0.135511,1.281053 l 0.07333,0.292967 -0.164371,0.218142 c -0.329918,0.437844 -0.661557,0.830817 -1.0997,1.303076 -0.137549,0.14826 -0.159074,0.164074 -0.173932,0.127777 z"/>
        <path d="m 19.570917,27.87255 c -0.371477,-0.398946 -0.749401,-0.936593 -0.993423,-1.413276 -0.135057,-0.263827 -0.337317,-0.7409 -0.337317,-0.795634 0,-0.01433 0.04202,-0.08527 0.09338,-0.15765 0.349859,-0.493056 0.746868,-1.248789 0.939613,-1.78862 l 0.06743,-0.188859 0.02605,0.188224 c 0.09365,0.676584 0.396077,1.377992 0.864457,2.004929 l 0.16398,0.219491 -0.0366,0.153193 c -0.06149,0.2574 -0.257768,0.926477 -0.351064,1.196704 -0.108232,0.313489 -0.255256,0.696752 -0.276171,0.719923 -0.0085,0.0094 -0.08067,-0.05286 -0.160341,-0.138425 z"/>
        <path d="m 22.595245,27.431398 c -0.468185,-0.222627 -0.934973,-0.512951 -1.321037,-0.821633 -0.229771,-0.183716 -0.529325,-0.46436 -0.651845,-0.610698 l -0.08858,-0.105794 0.05844,-0.300731 c 0.10665,-0.548861 0.141821,-0.885323 0.154566,-1.478649 l 0.01198,-0.55773 0.119631,0.190194 c 0.344588,0.547833 0.832095,1.023188 1.42631,1.390754 0.108668,0.06722 0.228865,0.137137 0.267105,0.155372 l 0.06953,0.03316 0.04704,0.343822 c 0.07194,0.525771 0.107694,0.939408 0.123152,1.424603 0.0077,0.243042 0.01016,0.441154 0.0054,0.440248 -0.0048,-9.06e-4 -0.104536,-0.04722 -0.221665,-0.102913 z"/>
        <path d="m 25.012361,25.859963 c -0.722803,-0.05621 -1.605955,-0.28637 -2.151756,-0.560771 l -0.117972,-0.05931 -0.028,-0.167001 c -0.09462,-0.564425 -0.344172,-1.372206 -0.596632,-1.931245 -0.0362,-0.08015 -0.06581,-0.150275 -0.06581,-0.155823 0,-0.0055 0.04073,0.02298 0.09051,0.0634 0.506791,0.411505 1.290352,0.723038 2.102998,0.836122 0.160606,0.02235 0.231454,0.0415 0.25145,0.06796 0.127272,0.168439 0.611375,1.071363 0.820944,1.531183 0.197729,0.433842 0.200177,0.391058 -0.02212,0.386653 -0.103277,-0.002 -0.230902,-0.0071 -0.28361,-0.01117 z"/>
        <path d="m 24.508794,23.729256 c -0.03343,-0.04709 -0.139263,-0.199324 -0.235186,-0.338291 -0.316182,-0.458067 -0.692565,-0.898375 -1.07864,-1.261837 -0.11773,-0.110834 -0.152257,-0.153836 -0.117129,-0.145879 0.563118,0.127548 0.803383,0.153474 1.273147,0.13738 0.376506,-0.0129 0.723804,-0.06384 1.071109,-0.157108 l 0.207419,-0.0557 0.08008,0.05318 c 0.466126,0.309582 1.645306,1.343454 1.576312,1.382065 -0.07492,0.04192 -0.622143,0.21642 -0.889159,0.283527 -0.465317,0.116944 -0.8178,0.162809 -1.355547,0.176381 l -0.471623,0.0119 z"/>
        <path d="M 25.544766,21.694313 C 25.060785,21.344204 24.278732,20.92705 23.760743,20.7427 c -0.108601,-0.03865 -0.194185,-0.07355 -0.190186,-0.07755 0.004,-0.004 0.116813,-0.02611 0.250698,-0.04914 0.682202,-0.117328 1.330242,-0.410892 1.938357,-0.878083 0.08888,-0.06829 0.180931,-0.124156 0.20455,-0.124156 0.17255,0 1.974472,0.575149 2.055141,0.655972 0.02184,0.02188 -0.37131,0.367727 -0.684313,0.601989 -0.446286,0.334016 -0.908663,0.594707 -1.408964,0.794382 -0.135837,0.05421 -0.255628,0.09833 -0.266202,0.09804 -0.01057,-2.9e-4 -0.06235,-0.03172 -0.115058,-0.06985 z"/>
        <path d="M 25.757728,19.441632 C 25.585105,19.398292 25.059589,19.314724 24.765045,19.28378 24.582178,19.26457 24.255624,19.25043 23.9934,19.25037 l -0.454613,-1.05e-4 0.18841,-0.117926 c 0.589587,-0.369021 1.085876,-0.887452 1.465839,-1.53124 l 0.1417,-0.240088 0.227468,-0.03443 c 0.490439,-0.07423 0.999587,-0.119085 1.70363,-0.1501 l 0.26228,-0.01155 -0.0145,0.04781 c -0.0398,0.131237 -0.397601,0.792964 -0.563654,1.042434 -0.256181,0.384876 -0.427187,0.594657 -0.755945,0.927359 -0.287784,0.291234 -0.293881,0.294855 -0.436288,0.259099 z"/>
        <path d="m 23.010521,17.922105 c 0,-0.0051 0.05711,-0.08896 0.126909,-0.186342 0.389926,-0.544026 0.656042,-1.25503 0.749952,-2.003704 l 0.02611,-0.20813 0.224669,-0.134713 c 0.470855,-0.282326 1.14553,-0.626008 1.690804,-0.861304 l 0.06059,-0.02614 -0.01356,0.208102 c -0.06207,0.952729 -0.229756,1.679674 -0.545184,2.363491 -0.06093,0.1321 -0.0928,0.177605 -0.130336,0.186138 -0.02733,0.0062 -0.150309,0.0313 -0.273294,0.05574 -0.605156,0.120296 -1.172792,0.296979 -1.699326,0.528937 -0.201,0.08855 -0.21733,0.0944 -0.21733,0.07792 z"/>
        <path d="m 21.974641,16.937229 c 0.105071,-0.356192 0.147001,-0.671276 0.148267,-1.114169 0.0013,-0.45143 -0.03515,-0.747674 -0.145366,-1.181827 l -0.07026,-0.27674 0.107846,-0.149184 c 0.286305,-0.396046 0.943387,-1.171977 1.215983,-1.435922 l 0.09724,-0.09415 0.04138,0.09654 c 0.124254,0.289872 0.292454,0.909592 0.36304,1.337595 0.05671,0.343867 0.09052,0.86531 0.07322,1.129278 l -0.01362,0.207881 -0.183288,0.117841 c -0.462452,0.297324 -0.998239,0.736079 -1.388164,1.136764 -0.141734,0.145645 -0.252559,0.24739 -0.246279,0.226099 z"/>
        <path d="m 20.647679,16.419353 c -0.0017,-0.115652 -0.05875,-0.415839 -0.121427,-0.638885 -0.15122,-0.538128 -0.428077,-1.077559 -0.800109,-1.558939 l -0.126777,-0.16404 0.108186,-0.405108 c 0.115978,-0.434284 0.325403,-1.082481 0.470412,-1.455978 0.103792,-0.267337 0.07159,-0.269865 0.335671,0.02636 0.495623,0.555946 0.922814,1.247412 1.165156,1.88596 l 0.08891,0.234258 -0.142502,0.212962 c -0.405507,0.606011 -0.692751,1.159299 -0.906597,1.746286 -0.05867,0.161039 -0.07,0.179755 -0.07092,0.117129 z"/>
        <path d="m 19.221283,16.424677 c -0.06038,-0.132672 -0.30599,-0.48046 -0.486139,-0.688364 -0.31022,-0.358015 -0.701457,-0.678005 -1.148969,-0.939731 -0.119586,-0.06994 -0.222204,-0.143114 -0.22804,-0.162608 -0.0058,-0.01949 -0.02972,-0.174401 -0.05307,-0.344238 -0.0933,-0.678596 -0.162977,-1.810176 -0.111464,-1.810176 0.04863,0 0.67698,0.327075 0.926933,0.482498 0.431713,0.268444 0.854179,0.609695 1.169566,0.944729 l 0.179649,0.19084 -0.05035,0.247839 c -0.124581,0.613193 -0.18963,1.29175 -0.173801,1.813009 0.0054,0.178622 0.0082,0.324767 0.0061,0.324767 -0.0021,0 -0.01576,-0.02635 -0.03041,-0.05857 z"/>
    </g>
    <g style="fill:#ffff00;fill-opacity:1;stroke:#000000;stroke-width:0.00212962;stroke-dasharray:none;stroke-opacity:1">
        <path d="m 17.686476,19.452711 c -0.135044,-0.04521 -0.557421,-0.115781 -0.693005,-0.115781 -0.197142,0 -0.759426,-0.189922 -1.256622,-0.424449 -0.434131,-0.204779 -1.243472,-0.692799 -1.207916,-0.728355 0.01038,-0.01038 0.123729,-0.04275 0.251877,-0.07193 0.785264,-0.178791 1.536147,-0.156629 2.225631,0.06569 0.183821,0.05927 0.273705,0.104789 0.490601,0.248447 0.146051,0.09673 0.346471,0.219006 0.445378,0.271715 0.135682,0.07231 0.230129,0.145501 0.384705,0.298146 0.250479,0.247349 0.391893,0.424117 0.36267,0.453339 -0.01193,0.01193 -0.212024,0.02405 -0.464228,0.02812 -0.352906,0.0057 -0.462792,6.08e-4 -0.539091,-0.02494 z"/>
        <path d="m 15.535562,20.622062 c -0.041,-0.0039 -0.179953,-0.01703 -0.308795,-0.02916 -0.229511,-0.02159 -0.969178,-0.141679 -0.987886,-0.160387 -0.01169,-0.01169 -0.0267,8.63e-4 0.188341,-0.157493 0.625951,-0.460951 1.348178,-0.742675 2.082685,-0.812409 0.248009,-0.02355 0.263263,-0.02246 0.582523,0.04145 0.180314,0.03609 0.409302,0.07196 0.508861,0.07971 0.129049,0.01004 0.236044,0.03505 0.372683,0.08711 0.206074,0.07852 0.558136,0.248933 0.601595,0.291191 0.02103,0.02044 -0.02805,0.05294 -0.234258,0.155114 -0.352586,0.174703 -0.5201,0.23414 -0.771964,0.27391 -0.241959,0.03821 -0.402904,0.07739 -0.617589,0.150361 -0.185718,0.06312 -0.539191,0.09523 -1.00092,0.09091 -0.187407,-0.0018 -0.374281,-0.0064 -0.415276,-0.01031 z"/>
        <path d="m 14.832788,22.600771 c 0,-0.02859 0.237883,-0.398135 0.378488,-0.587977 0.2055,-0.277462 0.640176,-0.708413 0.899283,-0.891576 0.111272,-0.07866 0.315321,-0.201633 0.453442,-0.273274 0.216584,-0.11234 0.286891,-0.137362 0.511108,-0.181904 0.142989,-0.02841 0.370188,-0.08272 0.504886,-0.120706 0.230003,-0.06486 0.265641,-0.06905 0.585645,-0.06888 0.187406,9.7e-5 0.386418,0.0079 0.442248,0.01733 l 0.101509,0.01715 -0.127089,0.15304 c -0.213045,0.256548 -0.49001,0.512595 -0.671739,0.621004 -0.18058,0.107724 -0.361017,0.240694 -0.528672,0.389595 -0.177193,0.157373 -0.804123,0.451782 -1.346536,0.632339 -0.35272,0.117412 -1.202573,0.325081 -1.202573,0.293859 z"/>
        <path d="m 16.227933,24.285241 c 0.107595,-0.784529 0.392985,-1.507121 0.811925,-2.055748 0.187411,-0.245424 0.29925,-0.3508 0.550785,-0.51895 0.128842,-0.08613 0.313169,-0.219943 0.409616,-0.297361 0.09645,-0.07742 0.247193,-0.173951 0.334992,-0.214517 0.156108,-0.07213 0.578909,-0.221929 0.626369,-0.221929 0.03872,0 0.02842,0.05764 -0.05275,0.295186 -0.109607,0.320781 -0.218674,0.539463 -0.378536,0.758974 -0.07677,0.105417 -0.19377,0.29572 -0.259997,0.422896 -0.223814,0.429788 -0.781657,1.009967 -1.472447,1.531405 -0.177143,0.133715 -0.456677,0.328218 -0.555878,0.386787 -0.02263,0.01336 -0.02544,-0.0039 -0.01408,-0.08674 z"/>
        <path d="m 18.176288,25.485541 c 0,-0.0047 -0.01948,-0.0843 -0.04329,-0.176951 -0.168391,-0.655296 -0.185915,-1.35368 -0.04937,-1.967494 0.08447,-0.37972 0.157806,-0.556228 0.355925,-0.856661 0.09752,-0.147881 0.217082,-0.345324 0.265694,-0.438762 0.09624,-0.184988 0.318817,-0.431083 0.589088,-0.651335 l 0.149073,-0.121485 0.01749,0.09152 c 0.0096,0.05034 0.01892,0.259231 0.02067,0.464207 0.0029,0.341253 -0.0016,0.391289 -0.05398,0.59331 -0.03144,0.121345 -0.06839,0.34176 -0.08213,0.489812 -0.02045,0.220431 -0.04322,0.325114 -0.125762,0.57798 -0.118852,0.364122 -0.304885,0.79165 -0.500581,1.1504 -0.209676,0.384377 -0.542831,0.903264 -0.542831,0.845456 z"/>
        <path d="m 20.313303,25.625109 c -0.446143,-0.598599 -0.72546,-1.250547 -0.826068,-1.928111 -0.04426,-0.298047 -0.04181,-0.509724 0.0085,-0.735538 0.02291,-0.10287 0.05982,-0.325623 0.08202,-0.495008 0.04464,-0.340632 0.117018,-0.558014 0.296876,-0.891621 0.114156,-0.21174 0.09936,-0.219198 0.271031,0.136623 0.147295,0.305303 0.209472,0.496454 0.263695,0.810681 0.02439,0.141339 0.07312,0.345047 0.108298,0.452685 0.03517,0.107637 0.07477,0.279495 0.088,0.381905 0.03595,0.278381 0.02976,1.069756 -0.01112,1.421378 -0.0386,0.332033 -0.135835,0.922213 -0.15884,0.964135 -0.0098,0.01792 -0.0513,-0.02177 -0.122372,-0.117129 z"/>
        <path d="m 22.362707,25.02601 c -0.126868,-0.07942 -0.319702,-0.213736 -0.428522,-0.298488 -0.257434,-0.2005 -0.642971,-0.600375 -0.824351,-0.85501 -0.149637,-0.210072 -0.420597,-0.720701 -0.420597,-0.792623 0,-0.07428 -0.08616,-0.468983 -0.151706,-0.695009 -0.05718,-0.197154 -0.0641,-0.252033 -0.0641,-0.508355 0,-0.337319 0.02024,-0.559051 0.05104,-0.559051 0.03324,0 0.194498,0.136341 0.427804,0.361691 0.140117,0.135339 0.238423,0.252168 0.295961,0.351728 0.110647,0.191453 0.202892,0.321011 0.379076,0.532408 0.353633,0.424311 0.726103,1.366578 0.937023,2.37046 0.02537,0.120751 0.04228,0.223393 0.03758,0.228094 -0.0047,0.0047 -0.112348,-0.05643 -0.239216,-0.135845 z"/>
        <path d="m 24.163059,23.75285 c -1.057898,-0.163114 -2.022661,-0.689986 -2.447774,-1.336766 -0.07667,-0.116652 -0.205897,-0.294165 -0.287165,-0.394474 -0.08127,-0.100309 -0.181135,-0.254254 -0.221925,-0.342101 -0.08107,-0.1746 -0.24908,-0.658307 -0.233918,-0.67347 0.01559,-0.01558 0.50295,0.151837 0.684977,0.235306 0.09318,0.04273 0.217758,0.114628 0.27685,0.159782 0.160028,0.12228 0.385494,0.262958 0.565308,0.35272 0.36257,0.180991 0.979138,0.778491 1.463182,1.417931 0.204036,0.269539 0.439809,0.616879 0.416755,0.613964 -0.0091,-0.0011 -0.106417,-0.01595 -0.21629,-0.03289 z"/>
        <path d="m 23.8591,21.997373 c -0.278899,-0.02222 -0.607545,-0.08742 -0.852149,-0.169074 -0.230208,-0.07685 -0.282352,-0.10379 -0.542714,-0.280434 -0.115352,-0.07826 -0.29232,-0.186184 -0.393262,-0.239829 -0.212591,-0.11298 -0.407397,-0.283584 -0.632591,-0.554 l -0.158855,-0.190754 0.06156,-0.01852 c 0.03386,-0.01019 0.243647,-0.02018 0.466193,-0.02221 0.375676,-0.0034 0.42127,4.51e-4 0.63723,0.05411 0.127932,0.03179 0.348347,0.06844 0.489812,0.08146 0.575347,0.05293 1.493586,0.446302 2.338911,1.00199 0.1142,0.07507 0.207637,0.142854 0.207637,0.150626 0,0.02229 -0.437972,0.121207 -0.682802,0.15422 -0.306783,0.04137 -0.669439,0.05389 -0.938975,0.03242 z"/>
        <path d="m 22.95728,20.50745 c -0.0937,-0.02269 -0.310829,-0.05977 -0.482502,-0.08239 -0.344075,-0.04535 -0.592826,-0.128774 -0.920339,-0.308669 l -0.167453,-0.09198 0.114317,-0.06519 c 0.295196,-0.168345 0.66667,-0.310397 0.902277,-0.345029 0.199013,-0.02925 0.425297,-0.08406 0.649748,-0.157366 0.319528,-0.104361 1.100632,-0.123834 1.783958,-0.04448 0.331169,0.03846 0.882168,0.134132 0.905758,0.157269 0.0339,0.03325 -0.444512,0.358524 -0.78346,0.532667 -0.688255,0.353607 -1.520119,0.521937 -2.002304,0.40517 z"/>
        <path d="m 21.430174,19.508898 c -0.05514,-0.0077 -0.105955,-0.0197 -0.112914,-0.02666 -0.04209,-0.04208 0.541253,-0.637752 0.724285,-0.739594 0.168297,-0.09364 0.358606,-0.229509 0.553617,-0.395237 0.309762,-0.263249 1.123766,-0.612322 1.863499,-0.799132 0.340444,-0.08598 0.658389,-0.153445 0.683559,-0.145055 0.01163,0.0039 -0.02645,0.08624 -0.08462,0.183024 -0.339102,0.564213 -0.764418,1.018687 -1.269766,1.356815 -0.352002,0.235525 -0.590201,0.342547 -0.876332,0.393735 -0.130596,0.02336 -0.354173,0.07608 -0.496839,0.117139 -0.247355,0.0712 -0.273891,0.07453 -0.571808,0.07182 -0.171829,-0.0016 -0.357534,-0.0091 -0.412678,-0.01685 z"/>
        <path d="m 21.00868,18.996509 c 0,-0.04433 0.156895,-0.487461 0.230087,-0.649851 0.04223,-0.0937 0.10693,-0.208703 0.14377,-0.255555 0.119836,-0.152403 0.241439,-0.3447 0.361866,-0.572234 0.255925,-0.483542 0.917206,-1.132497 1.745282,-1.712748 0.152267,-0.106698 0.280054,-0.18484 0.28397,-0.173648 0.01479,0.04226 -0.06663,0.483069 -0.135935,0.735927 -0.16801,0.613019 -0.444763,1.142352 -0.831176,1.589754 -0.106224,0.122989 -0.203133,0.204964 -0.379302,0.320848 -0.130143,0.08561 -0.318082,0.221589 -0.417642,0.302179 -0.19332,0.156487 -0.436184,0.277712 -0.762437,0.380569 -0.191394,0.06034 -0.238483,0.0672 -0.238483,0.03476 z"/>
        <path d="m 20.52983,18.522378 c -0.02565,-0.352995 -0.0028,-0.746471 0.05957,-1.027568 0.03121,-0.140554 0.06283,-0.346595 0.07027,-0.457867 0.01067,-0.159557 0.03494,-0.267575 0.114831,-0.511109 0.207685,-0.633095 0.503277,-1.226608 0.923488,-1.854252 l 0.116802,-0.174459 0.02213,0.08265 c 0.129969,0.485444 0.160661,0.721098 0.160541,1.232641 -1.22e-4,0.512761 -0.03717,0.768578 -0.170738,1.178979 -0.06341,0.194837 -0.107532,0.282636 -0.250515,0.498518 -0.09545,0.144118 -0.216674,0.343135 -0.269382,0.442261 -0.06734,0.126639 -0.149658,0.236349 -0.27685,0.368961 -0.154563,0.161149 -0.374768,0.354054 -0.461202,0.404025 -0.01751,0.01012 -0.02877,-0.04274 -0.03894,-0.182778 z"/>
        <path d="m 19.886815,18.350916 c -0.172872,-0.34797 -0.250872,-0.575082 -0.294021,-0.856106 -0.01978,-0.128841 -0.06822,-0.334882 -0.107637,-0.457867 -0.08818,-0.27513 -0.116283,-0.530564 -0.116283,-1.057023 0,-0.510207 0.05325,-1.027749 0.16217,-1.576203 l 0.03597,-0.181102 0.05059,0.06018 c 0.02782,0.0331 0.12729,0.174551 0.221037,0.314337 0.546368,0.814689 0.809515,1.802812 0.659706,2.477215 -0.02408,0.108419 -0.05756,0.314888 -0.0744,0.458821 -0.03442,0.294247 -0.08968,0.46926 -0.249516,0.790234 -0.163785,0.328901 -0.139053,0.326536 -0.287609,0.02751 z"/>
        <path d="m 19.326282,18.578341 c -0.305116,-0.261232 -0.487315,-0.461248 -0.618906,-0.679421 -0.07132,-0.11825 -0.205925,-0.305466 -0.299117,-0.416036 -0.277973,-0.329805 -0.587496,-0.994526 -0.796733,-1.711035 -0.07447,-0.255032 -0.231474,-0.927708 -0.219158,-0.939001 0.01223,-0.01122 0.400456,0.233053 0.575294,0.361975 0.21392,0.157741 0.59839,0.523168 0.761135,0.723435 0.178436,0.219576 0.322439,0.441731 0.446211,0.688376 0.09001,0.179362 0.119048,0.266696 0.16272,0.489362 0.02924,0.149071 0.08338,0.371662 0.120327,0.494647 0.06089,0.20272 0.06732,0.251463 0.06885,0.521757 0.0017,0.301105 -0.02165,0.586143 -0.04792,0.585051 -0.0079,-3.26e-4 -0.07657,-0.05392 -0.152702,-0.11911 z"/>
        <path d="m 18.687396,18.891561 c -0.374458,-0.133224 -0.480479,-0.186474 -0.722939,-0.363109 -0.110651,-0.08061 -0.297525,-0.1962 -0.415276,-0.256867 -0.11775,-0.06067 -0.281175,-0.163746 -0.363165,-0.229066 -0.215486,-0.171674 -0.762655,-0.725575 -0.9618,-0.973632 -0.179125,-0.22312 -0.501474,-0.664458 -0.569818,-0.780155 l -0.03996,-0.06765 0.125608,0.01423 c 0.617006,0.06992 1.322389,0.327063 1.840988,0.671108 0.316643,0.210066 0.527073,0.413111 0.70722,0.682402 0.08294,0.123984 0.212782,0.302092 0.288534,0.395796 0.07575,0.0937 0.175009,0.248994 0.220572,0.345092 0.07415,0.156399 0.230776,0.595095 0.230776,0.646401 0,0.03254 -0.03838,0.02302 -0.340739,-0.08456 z"/>
    </g>
</svg>
